<svg xmlns="http://www.w3.org/2000/svg" viewBox="0 0 400 225">
  <defs>
    <style>
      .cls-1 {
        fill: none;
      }

      .cls-2 {
        fill: #c6c6c7;
      }

      .cls-3 {
        fill: #fff;
      }
    </style>
  </defs>
  <title>content type placeholder_1</title>
  <g id="Layer_2" data-name="Layer 2">
    <g id="content_type_placeholder" data-name="content type placeholder">
      <rect class="cls-1" width="400" height="225"/>
      <g>
        <path class="cls-2" d="M289,74A26.51,26.51,0,0,0,262.49,47.5h-118A26.51,26.51,0,0,0,118,74v75a26.51,26.51,0,0,0,26.51,26.51h118A26.51,26.51,0,0,0,289,149Zm-15,61.81a25.67,25.67,0,0,1-25.67,25.67H158.67A25.67,25.67,0,0,1,133,135.83V101.17A25.67,25.67,0,0,1,158.67,75.5h89.65A25.67,25.67,0,0,1,274,101.17Z"/>
        <rect class="cls-3" x="133" y="75.5" width="141" height="86" rx="25.67" ry="25.67"/>
      </g>
      <circle class="cls-3" cx="145.48" cy="62.13" r="3.59"/>
      <circle class="cls-3" cx="156.54" cy="62.13" r="3.59"/>
      <circle class="cls-3" cx="167.45" cy="62.13" r="3.59"/>
      <g id="_Group_" data-name="&lt;Group&gt;">
        <g id="_Group_2" data-name="&lt;Group&gt;">
          <path id="_Compound_Path_" data-name="&lt;Compound Path&gt;" class="cls-2" d="M242.61,101.93c-2-1.95-5.1-2.43-9.19-2.43H222v6H203.14l-1.34,6a21.38,21.38,0,0,1,3.82-1.12,13.61,13.61,0,0,1,3.28-.13,12.28,12.28,0,0,1,8.9,3.37,11.22,11.22,0,0,1,3.42,8.38,14.23,14.23,0,0,1-1.76,6.82,12.82,12.82,0,0,1-5,5.35c-.77.41-.7,1.37-2.55,1.37H225v-14h7.17c4.55,0,7.94-1,10.16-3.1a10.72,10.72,0,0,0,3.33-8.41C245.66,106.4,244.65,103.88,242.61,101.93Zm-9.26,10.74c-.88.76-2.41.83-4.59.83H225v-8h4.21a5.9,5.9,0,0,1,4.31,1.43,4,4,0,0,1,1.15,2.88A3.58,3.58,0,0,1,233.35,112.67Z"/>
          <path id="_Path_" data-name="&lt;Path&gt;" class="cls-2" d="M205.25,116.87a5,5,0,0,0-4.5,2.8l-9.89-.89,4.47-19.27H187v14H175v-14H165v36h10v-14h12v14h12.92c-2.68,0-3.12-1.48-4.31-2.37a12.85,12.85,0,0,1-2.93-3.26,15.56,15.56,0,0,1-1.84-4.22l9.9-1.46a5,5,0,1,0,4.49-7.32Z"/>
        </g>
      </g>
      <rect class="cls-3" x="178.01" y="60.04" width="75.65" height="4.49" rx="2.18" ry="2.18"/>
    </g>
  </g>
</svg>
