<svg id="Layer_1" data-name="Layer 1" xmlns="http://www.w3.org/2000/svg" xmlns:xlink="http://www.w3.org/1999/xlink" viewBox="0 0 242.91 95.06">
  <defs>
    <style>
      .cls-1 {
        fill: none;
      }

      .cls-2 {
        clip-path: url(#clip-path);
      }

      .cls-3 {
        fill: #ccccd5;
      }
    </style>
    <clipPath id="clip-path">
      <rect class="cls-1" x="0.17" y="-0.02" width="244.4" height="95.78"/>
    </clipPath>
  </defs>
  <title>no-results</title>
  <g class="cls-2">
    <path class="cls-3" d="M108.92,78.45V93.78a1.28,1.28,0,0,1-1.28,1.28H89.75a1.28,1.28,0,0,1-1.28-1.28V72.48a1.28,1.28,0,0,1,1.28-1.28h11.92a3.57,3.57,0,0,1,2.18.91L108,76.26A3.57,3.57,0,0,1,108.92,78.45Zm-1.7,1.28h-5.54a1.28,1.28,0,0,1-1.28-1.28V72.91H90.18V93.35h17ZM94,81.43h9.37a.42.42,0,0,1,.42.43v.85a.42.42,0,0,1-.42.43H94a.42.42,0,0,1-.43-.43v-.85A.42.42,0,0,1,94,81.43Zm9.79,3.83v.85a.42.42,0,0,1-.42.43H94a.42.42,0,0,1-.43-.43v-.85a.42.42,0,0,1,.43-.43h9.37A.42.42,0,0,1,103.81,85.26Zm0,3.41v.85a.42.42,0,0,1-.42.43H94a.42.42,0,0,1-.43-.43v-.85a.42.42,0,0,1,.43-.43h9.37A.42.42,0,0,1,103.81,88.67ZM102.1,78h5a1.71,1.71,0,0,0-.29-.55l-4.17-4.17a1.69,1.69,0,0,0-.55-.29Z"/>
    <path class="cls-3" d="M218.87,85.19,214.95,90a4.8,4.8,0,0,1-3.41,1.62H197.06a3,3,0,0,1-3-3V75.89a3,3,0,0,1,3-3h4.26a3,3,0,0,1,3,3v.43h7.24a3,3,0,0,1,3,3v2.13h2.56a2.37,2.37,0,0,1,2.21,1.26,2.09,2.09,0,0,1,.2.9A2.62,2.62,0,0,1,218.87,85.19Zm-6.06-3.77V79.3A1.28,1.28,0,0,0,211.54,78h-7.67a1.28,1.28,0,0,1-1.28-1.28v-.85a1.28,1.28,0,0,0-1.28-1.28h-4.26a1.28,1.28,0,0,0-1.28,1.28V87.24L199.19,83a4.75,4.75,0,0,1,3.41-1.62Zm4.26,1.7H202.6a3.07,3.07,0,0,0-2.09,1l-3.91,4.83a.92.92,0,0,0-.24.53c0,.37.41.47.71.47h14.48a3,3,0,0,0,2.09-1l3.91-4.83a.85.85,0,0,0,.24-.52C217.78,83.22,217.37,83.13,217.08,83.13Z"/>
    <g>
      <rect class="cls-3" x="117.74" y="81.06" width="9" height="9" rx="1.7" ry="1.7"/>
      <path class="cls-3" d="M131.49,81.43a.35.35,0,0,0-.26.12l-3.48,3.54v1.2l3.48,3.54a.39.39,0,0,0,.28.12c.05,0,0,0,.06,0s.17-.23.17-.4V81.85c0-.17,0-.33-.18-.4S131.54,81.43,131.49,81.43Z"/>
      <path class="cls-3" d="M133.74,79.84V93.06h-17V79.21c-1-.17-2-.36-2-.56V93.78a1.4,1.4,0,0,0,1.41,1.28H135c.71,0,.71-.58.71-1.28V79.4C135.74,79.55,133.74,79.71,133.74,79.84Z"/>
    </g>
    <path class="cls-3" d="M20.44,7.24V22.57a1.28,1.28,0,0,1-1.28,1.28H1.28A1.28,1.28,0,0,1,0,22.57V1.28A1.28,1.28,0,0,1,1.28,0H13.2a3.57,3.57,0,0,1,2.18.91l4.15,4.15A3.57,3.57,0,0,1,20.44,7.24Zm-1.7,1.28H13.2a1.28,1.28,0,0,1-1.28-1.28V1.7H1.7V22.15h17Zm-13.2,1.7h9.37a.42.42,0,0,1,.43.43v.85a.42.42,0,0,1-.43.43H5.54a.42.42,0,0,1-.43-.43v-.85A.42.42,0,0,1,5.54,10.22Zm9.8,3.83v.85a.42.42,0,0,1-.43.43H5.54a.42.42,0,0,1-.43-.43v-.85a.42.42,0,0,1,.43-.43h9.37A.42.42,0,0,1,15.33,14.05Zm0,3.41v.85a.42.42,0,0,1-.43.43H5.54a.42.42,0,0,1-.43-.43v-.85A.42.42,0,0,1,5.54,17h9.37A.42.42,0,0,1,15.33,17.46ZM13.63,6.81h5a1.7,1.7,0,0,0-.29-.55L14.17,2.1a1.7,1.7,0,0,0-.55-.29Z"/>
    <path class="cls-3" d="M46.84,7.24V22.57a1.28,1.28,0,0,1-1.28,1.28H27.68a1.28,1.28,0,0,1-1.28-1.28V1.28A1.28,1.28,0,0,1,27.68,0H39.6a3.57,3.57,0,0,1,2.18.91l4.15,4.15A3.57,3.57,0,0,1,46.84,7.24Zm-1.7,1.28H39.6a1.28,1.28,0,0,1-1.28-1.28V1.7H28.1V22.15h17Zm-6.81,3.41V17a1.72,1.72,0,0,1-1.7,1.7H31.51a1.72,1.72,0,0,1-1.7-1.7V11.92a1.72,1.72,0,0,1,1.7-1.7h5.11A1.72,1.72,0,0,1,38.33,11.92Zm5.11-1.28v7.67a.44.44,0,0,1-.27.4l-.16,0a.45.45,0,0,1-.31-.12l-3.53-3.54v-1.2l3.53-3.54a.45.45,0,0,1,.31-.12l.16,0A.44.44,0,0,1,43.44,10.65ZM40,6.81h5a1.69,1.69,0,0,0-.29-.55L40.57,2.1A1.7,1.7,0,0,0,40,1.81Z"/>
    <path class="cls-3" d="M73.24,7.24V22.57A1.28,1.28,0,0,1,72,23.85H54.08a1.28,1.28,0,0,1-1.28-1.28V1.28A1.28,1.28,0,0,1,54.08,0H66a3.57,3.57,0,0,1,2.18.91l4.15,4.15A3.57,3.57,0,0,1,73.24,7.24Zm-1.7,1.28H66a1.28,1.28,0,0,1-1.28-1.28V1.7H54.5V22.15h17ZM61.32,11.71V19a.44.44,0,0,1-.27.4l-.16,0a.47.47,0,0,1-.31-.12L58.38,17H56.63a.42.42,0,0,1-.43-.43V14.05a.42.42,0,0,1,.43-.43h1.74l2.21-2.22a.43.43,0,0,1,.73.31Zm3.1,6.53a4.25,4.25,0,0,0,0-5.83.85.85,0,1,0-1.24,1.17,2.54,2.54,0,0,1,0,3.49.86.86,0,0,0,0,1.21.92.92,0,0,0,.59.23A.89.89,0,0,0,64.42,18.25Zm2.85,1.92a7.65,7.65,0,0,0,0-9.66.85.85,0,1,0-1.32,1.08,6,6,0,0,1,0,7.51.84.84,0,0,0,.12,1.2.83.83,0,0,0,.53.2A.84.84,0,0,0,67.27,20.16ZM66.43,6.81h5a1.69,1.69,0,0,0-.29-.55L67,2.1a1.7,1.7,0,0,0-.55-.29Z"/>
    <path class="cls-3" d="M99.64,7.24V22.57a1.28,1.28,0,0,1-1.28,1.28H80.48a1.28,1.28,0,0,1-1.28-1.28V1.28A1.28,1.28,0,0,1,80.48,0H92.4a3.57,3.57,0,0,1,2.18.91l4.15,4.15A3.57,3.57,0,0,1,99.64,7.24Zm-1.7,1.28H92.4a1.28,1.28,0,0,1-1.28-1.28V1.7H80.9V22.15h17ZM82.61,11.07a2.56,2.56,0,1,1,2.56,2.56A2.56,2.56,0,0,1,82.61,11.07Zm13.63,9.37H82.61V17.89l2.56-2.56,1.7,1.7L92,11.92l4.26,4.26ZM92.83,6.81h5a1.69,1.69,0,0,0-.29-.55L93.37,2.1a1.7,1.7,0,0,0-.55-.29Z"/>
    <g>
      <path class="cls-3" d="M60.81,41.21V56.54a1.28,1.28,0,0,1-1.28,1.28H41.65a1.28,1.28,0,0,1-1.28-1.28V35.24A1.28,1.28,0,0,1,41.65,34H53.57a3.57,3.57,0,0,1,2.18.91L59.91,39A3.57,3.57,0,0,1,60.81,41.21Zm-1.7,1.28H53.57a1.28,1.28,0,0,1-1.28-1.28V35.67H42.08V56.11h17Zm-13.2,1.7h9.37a.42.42,0,0,1,.43.43v.85a.42.42,0,0,1-.43.43H45.91a.42.42,0,0,1-.43-.43v-.85A.42.42,0,0,1,45.91,44.19ZM55.7,48v.85a.42.42,0,0,1-.43.43H45.91a.42.42,0,0,1-.43-.43V48a.42.42,0,0,1,.43-.43h9.37A.42.42,0,0,1,55.7,48Zm0,3.41v.85a.42.42,0,0,1-.43.43H45.91a.42.42,0,0,1-.43-.43v-.85a.42.42,0,0,1,.43-.43h9.37A.42.42,0,0,1,55.7,51.43ZM54,40.78h5a1.7,1.7,0,0,0-.29-.55l-4.17-4.17a1.69,1.69,0,0,0-.55-.29Z"/>
      <path class="cls-3" d="M87.22,41.21V56.54a1.28,1.28,0,0,1-1.28,1.28H68.05a1.28,1.28,0,0,1-1.28-1.28V35.24A1.28,1.28,0,0,1,68.05,34H80a3.57,3.57,0,0,1,2.18.91L86.31,39A3.57,3.57,0,0,1,87.22,41.21Zm-1.7,1.28H80a1.28,1.28,0,0,1-1.28-1.28V35.67H68.48V56.11h17ZM78.7,45.89V51A1.72,1.72,0,0,1,77,52.7H71.88a1.72,1.72,0,0,1-1.7-1.7V45.89a1.72,1.72,0,0,1,1.7-1.7H77A1.72,1.72,0,0,1,78.7,45.89Zm5.11-1.28v7.67a.44.44,0,0,1-.27.4l-.16,0a.44.44,0,0,1-.31-.12L79.55,49v-1.2l3.53-3.54a.44.44,0,0,1,.31-.12l.16,0A.44.44,0,0,1,83.81,44.61ZM80.4,40.78h5a1.69,1.69,0,0,0-.29-.55l-4.17-4.17a1.69,1.69,0,0,0-.55-.29Z"/>
      <path class="cls-3" d="M185.15,41.21V56.54a1.28,1.28,0,0,1-1.28,1.28H166a1.28,1.28,0,0,1-1.28-1.28V35.24A1.28,1.28,0,0,1,166,34h11.92a3.57,3.57,0,0,1,2.18.91L184.24,39A3.57,3.57,0,0,1,185.15,41.21Zm-1.7,1.28h-5.54a1.28,1.28,0,0,1-1.28-1.28V35.67H166.41V56.11h17Zm-10.22,3.19v7.24a.44.44,0,0,1-.27.4l-.16,0a.47.47,0,0,1-.31-.12L170.28,51h-1.74a.42.42,0,0,1-.43-.43V48a.42.42,0,0,1,.43-.43h1.74l2.21-2.22a.43.43,0,0,1,.73.31Zm3.1,6.53a4.25,4.25,0,0,0,0-5.83.85.85,0,1,0-1.24,1.17,2.54,2.54,0,0,1,0,3.49.86.86,0,0,0,0,1.21.92.92,0,0,0,.59.23A.89.89,0,0,0,176.33,52.21Zm2.85,1.92a7.65,7.65,0,0,0,0-9.66.85.85,0,1,0-1.32,1.08,6,6,0,0,1,0,7.51.84.84,0,0,0,.12,1.2.83.83,0,0,0,.53.2A.84.84,0,0,0,179.17,54.13Zm-.84-13.35h5a1.69,1.69,0,0,0-.29-.55l-4.17-4.17a1.69,1.69,0,0,0-.55-.29Z"/>
      <path class="cls-3" d="M211.55,41.21V56.54a1.28,1.28,0,0,1-1.28,1.28H192.39a1.28,1.28,0,0,1-1.28-1.28V35.24A1.28,1.28,0,0,1,192.39,34h11.92a3.57,3.57,0,0,1,2.18.91L210.65,39A3.57,3.57,0,0,1,211.55,41.21Zm-1.7,1.28h-5.54A1.28,1.28,0,0,1,203,41.21V35.67H192.81V56.11h17ZM194.52,45a2.56,2.56,0,1,1,2.56,2.56A2.56,2.56,0,0,1,194.52,45Zm13.63,9.37H194.52V51.85l2.56-2.56,1.7,1.7,5.11-5.11,4.26,4.26Zm-3.41-13.63h5a1.69,1.69,0,0,0-.29-.55l-4.17-4.17a1.69,1.69,0,0,0-.55-.29Z"/>
      <path class="cls-3" d="M242.3,48l-3.93,4.83A4.8,4.8,0,0,1,235,54.41H220.49a3,3,0,0,1-3-3V38.65a3,3,0,0,1,3-3h4.26a3,3,0,0,1,3,3v.43H235a3,3,0,0,1,3,3v2.13h2.56a2.37,2.37,0,0,1,2.21,1.26,2.08,2.08,0,0,1,.2.9A2.62,2.62,0,0,1,242.3,48Zm-6.06-3.77V42.06A1.28,1.28,0,0,0,235,40.78H227.3A1.28,1.28,0,0,1,226,39.5v-.85a1.28,1.28,0,0,0-1.28-1.28h-4.26a1.28,1.28,0,0,0-1.28,1.28V50l3.41-4.19A4.75,4.75,0,0,1,226,44.19Zm4.26,1.7H226a3.07,3.07,0,0,0-2.09,1L220,51.71a.92.92,0,0,0-.24.53c0,.37.41.47.71.47H235a3,3,0,0,0,2.09-1L241,46.88a.85.85,0,0,0,.24-.52C241.21,46,240.8,45.89,240.51,45.89Z"/>
    </g>
    <path class="cls-3" d="M108,18.48a.66.66,0,0,1,.14-.74L112,13a3,3,0,0,1,2.09-.92H128.6c.64,0,.9.39.47.92l-.2.21c.64,0,1.28.1,1.91.18a2.41,2.41,0,0,0,0-2,2.44,2.44,0,0,0-2.21-1.35h-2.86v-2a2.79,2.79,0,0,0-2.68-3h-7.32V4.68a2.64,2.64,0,0,0-2.9-2.62h-4.26a2.59,2.59,0,0,0-2.84,2.62V17.46a2.91,2.91,0,0,0,.78,2.07C107,19.17,107.46,18.82,108,18.48Zm-.23-14.33c0-.18.14-.09.84-.09h4.26c.71,0,.9-.08.9.62v.85a1.88,1.88,0,0,0,1.65,1.52h7.67c.71,0,.68.33.68,1v2h-9.62a6.47,6.47,0,0,0-4.09,1.7l-2.29,3.73Z"/>
    <path class="cls-3" d="M130.87,47.74a3.72,3.72,0,0,0-1.78,2.45.87.87,0,0,1-.74.89H123.9c-.41,0-.67-.63-.67-1v-.83c0-2.24,2.22-4.17,3.85-4.91,1.43-.65,2-1.26,2-2.44s-1.35-2-2.85-2a3.79,3.79,0,0,0-2,.54,10.48,10.48,0,0,0-2,2.13.77.77,0,0,1-.57.3.86.86,0,0,1-.46-.15l-3-2.32a.73.73,0,0,1-.19-1,9.4,9.4,0,0,1,8.59-4.93c4,0,8.41,3.17,8.41,7.41C135,45.41,132.63,46.76,130.87,47.74Zm-1.7,9.71a.74.74,0,0,1-.74.74H124a.74.74,0,0,1-.74-.74V53a.74.74,0,0,1,.74-.74h4.44a.74.74,0,0,1,.74.74Z"/>
    <path class="cls-3" d="M166.48,89a1.91,1.91,0,0,1-1.34-.55l-19.07-19-2.84,2a29.84,29.84,0,1,1,7.68-7.69l-2,2.85,19,19A2,2,0,0,1,166.48,89Zm-40.16-68a25.77,25.77,0,1,0,25.77,25.77A25.8,25.8,0,0,0,126.32,21.08Z"/>
    <g>
      <path class="cls-3" d="M151.68,89.49a.92.92,0,0,0,.59.23.89.89,0,0,0,.62-.27,4.25,4.25,0,0,0,0-5.83.85.85,0,1,0-1.24,1.17,2.54,2.54,0,0,1,0,3.49A.86.86,0,0,0,151.68,89.49Z"/>
      <path class="cls-3" d="M155.76,86.54a5.9,5.9,0,0,1-1.33,3.75.84.84,0,0,0,.12,1.2.83.83,0,0,0,.53.2.84.84,0,0,0,.67-.32,7.68,7.68,0,0,0,1.72-4.83s0-.07,0-.1l-2.16-2.15A5.91,5.91,0,0,1,155.76,86.54Z"/>
      <path class="cls-3" d="M159.74,89v4.08h-17V76.25c0,.32-1,.62-2,.91V93.78c0,.71,1.11,1.28,1.81,1.28h17.89a1.3,1.3,0,0,0,1.3-1.28V90.68Z"/>
      <path class="cls-3" d="M145.11,88.06h1.74l2.21,2.31a.54.54,0,0,0,.31.16.45.45,0,0,0,.13,0,.38.38,0,0,0,.24-.38V82.92a.41.41,0,0,0-.24-.4c-.16-.07-.32-.41-.45-.29l-2.2,1.84h-1.74c-.24,0-.37,1-.37,1.2v2.56C144.74,88.05,144.87,88.06,145.11,88.06Z"/>
    </g>
    <g>
      <path class="cls-3" d="M187.53,76.26l-4.31-3.72c-.49-.49-1.63-.48-2.34-.48H169c-.71,0-1.21-.28-1.21.42v7.23l2,1.7V73.06h10v5.38c0,.71.43.62,1.14.62h5.86v14h-17v-.81a9.18,9.18,0,0,1-2,.63v.89A1.23,1.23,0,0,0,169,95.06h17.89c.71,0,1.9-.58,1.9-1.28V78.45A4,4,0,0,0,187.53,76.26Zm-5.78.8V73c0,.08.23.2.33.29L186.13,77c.09.09.1.07.18.07Z"/>
      <path class="cls-3" d="M184.74,87.39l-4.27-4.26-5.12,5.11-1.71-1.7-1.38,1.21a4.56,4.56,0,0,1-1.52,3.1v.22h14Z"/>
      <circle class="cls-3" cx="173.64" cy="82.28" r="2.56"/>
    </g>
  </g>
</svg>
