<?xml version="1.0" encoding="utf-8"?>
<!-- Generator: Adobe Illustrator 24.3.0, SVG Export Plug-In . SVG Version: 6.00 Build 0)  -->
<svg version="1.1" id="Layer_1" xmlns="http://www.w3.org/2000/svg" xmlns:xlink="http://www.w3.org/1999/xlink" x="0px" y="0px"
	 viewBox="0 0 640 480" style="enable-background:new 0 0 640 480;" xml:space="preserve">
<style type="text/css">
	.st0{fill:#D0D0D1;}
	.st1{fill:#FFFFFF;}
	.st2{fill:#DBDBDC;}
</style>
<path class="st0" d="M628,480H12c-6.6,0-12-5.4-12-12V12C0,5.4,5.4,0,12,0h616c6.6,0,12,5.4,12,12v456C640,474.6,634.6,480,628,480z
	"/>
<g>
	<path class="st1" d="M518.7,180.4c-10.5-10.1-26.3-15.1-47.4-15.1h-56.1h-14.8v40h-85.2l-7,28.6c5.8-2.7,14.1-5.4,19.7-6.8
		c5.7-1.4,11.4-1.2,16.9-1.2c18.8,0,34.2,5.8,45.9,17.2c11.7,11.4,17.5,25.8,17.5,43.1c0,12.1-3,23.9-9,35.1
		c-6.1,11.2-14.6,19.9-25.7,25.8c-4,2.1-8.4,4-13.2,5.3h54.7h17.4v-68.4h32.3c23.5,0,40.9-5.4,52.4-16.1
		c11.5-10.7,17.2-25.7,17.2-44.6C534.4,204.8,529.1,190.5,518.7,180.4z M470.9,239.7c-4.5,3.9-12.4,5.7-23.6,5.7h-14.7v-41.3h17
		c10.8,0,18.3,1.9,22.2,6.1c4,4.1,5.9,8.9,5.9,14.8C477.8,231,475.4,235.8,470.9,239.7z"/>
	<path class="st1" d="M326.1,259.9c-10.2,0-19,5.9-23.2,14.5l-51-7.2l23-101.8h-30.5h-15.7v80h-64.5v-80h-56.8v187.1h56.8v-68.4
		h64.5v68.4h15.7h54.2c-8.6-2.6-16.1-5.9-22.2-10.5c-6.2-4.6-11.2-9.9-15.1-15.9c-3.9-5.9-6.8-12.5-9.4-21.3l51.1-7.4
		c4.3,8.5,13,14.3,23.1,14.3c14.3,0,25.9-11.6,25.9-25.9S340.3,259.9,326.1,259.9z"/>
</g>
<circle class="st2" cx="53.4" cy="54" r="18.1"/>
<circle class="st2" cx="105.8" cy="54" r="18.1"/>
<circle class="st2" cx="155.2" cy="54" r="18.1"/>
<path class="st2" d="M587.2,71.9h-287c-10,0-18.1-8.2-18.1-18.1v0c0-10,8.2-18.1,18.1-18.1h287c10,0,18.1,8.2,18.1,18.1v0
	C605.4,63.8,597.2,71.9,587.2,71.9z"/>
</svg>
