<svg version="1.2" xmlns="http://www.w3.org/2000/svg" xmlns:xlink="http://www.w3.org/1999/xlink" overflow="visible" preserveAspectRatio="none" viewBox="0 0 24 24" width="64" height="64"><g><path xmlns:default="http://www.w3.org/2000/svg" id="circle-o-notch" d="M21.01,12c0.02-1.46-0.32-2.9-1-4.2c-1.33-2.56-3.8-4.32-6.65-4.75v2.38c1.5,0.29,2.86,1.11,3.82,2.3  c1.58,1.9,1.97,4.53,1,6.81c-0.67,1.61-1.94,2.88-3.55,3.55c-1.65,0.71-3.52,0.71-5.17,0c-1.61-0.67-2.88-1.94-3.55-3.55  c-0.97-2.28-0.58-4.91,1-6.81c0.96-1.19,2.32-2.01,3.82-2.3V3.05C7.85,3.45,5.35,5.22,4.01,7.8c-1.23,2.38-1.34,5.18-0.3,7.65  c0.9,2.17,2.63,3.9,4.8,4.79c2.24,0.95,4.76,0.95,7,0c2.16-0.9,3.88-2.62,4.78-4.78C20.76,14.37,21,13.19,21.01,12L21.01,12z" style="fill: rgb(18, 18, 18);" vector-effect="non-scaling-stroke"/></g></svg>